<svg id="Capa_1" enable-background="new 0 0 512 512" height="512" viewBox="0 0 512 512" width="512" xmlns="http://www.w3.org/2000/svg"><g><path d="m345.112 16.659c-10.754-10.742-25.04-16.659-40.23-16.659h-28.563c-17.929 0-32.508 14.583-32.508 32.508v65.016c0 4.488 3.635 8.127 8.127 8.127s8.127-3.639 8.127-8.127v-65.016c0-8.964 7.294-16.254 16.254-16.254h28.563c10.849 0 21.056 4.226 28.738 11.901l27.488 27.489 11.492-11.493z" fill="#9e959e"/><path d="m380.286 74.825 11.492-11.492-19.178-19.182c-4.878 2.636-8.857 6.614-11.494 11.492z" fill="#ffd05b"/><path d="m268.191 89.397h-32.508l-10.222 16.254v73.143h58.984v-73.143c0-8.977-7.277-16.254-16.254-16.254z" fill="#736572"/><path d="m251.937 154.413c-.055 0-.11 0-.164 0-8.824.009-16.09-6.868-16.09-15.691v-49.325c-8.977 0-16.254 7.277-16.254 16.254v51.765c-31.452 5.781-60.026 19.785-83.405 39.702-42.998 36.631-56.896 93.264-50.328 155.526 8.702 82.483 63.413 140.132 145.851 149.252 62.671 6.933 119.75-9.584 156.583-52.844 26.568-31.204 42.601-71.652 42.601-115.845 0-98.746-80.049-178.794-178.794-178.794z" fill="#615260"/><path d="m430.731 121.905c-2.079 0-4.159-.794-5.746-2.381l-20.317-20.317c-3.175-3.175-3.175-8.317 0-11.492s8.317-3.175 11.492 0l20.317 20.317c3.175 3.175 3.175 8.317 0 11.492-1.588 1.587-3.667 2.381-5.746 2.381z" fill="#ffe077"/><path d="m422.604 73.143h-8.127c-4.492 0-8.127-3.639-8.127-8.127s3.635-8.127 8.127-8.127h8.127c4.492 0 8.127 3.639 8.127 8.127s-3.635 8.127-8.127 8.127z" fill="#ffefac"/><path d="m381.969 113.778c-4.492 0-8.127-3.639-8.127-8.127v-8.127c0-4.488 3.635-8.127 8.127-8.127s8.127 3.639 8.127 8.127v8.127c0 4.488-3.635 8.127-8.127 8.127z" fill="#ffefac"/><path d="m373.842 333.206c0 26.311-8.336 50.675-22.51 70.596-22.096 31.053-58.38 42.926-99.395 42.926-67.326 0-108.467-46.196-108.467-113.522 0-41.012 6.815-77.294 37.864-99.39 19.922-14.177 44.289-22.515 70.603-22.515 67.326.001 121.905 54.579 121.905 121.905z" fill="#ff7e92"/><path d="m356.781 319.981c-5.777-47.47-44.148-85.841-91.618-91.618-27.114-3.3-52.457 3.708-72.719 17.606-7.488 5.136-16.762-4.121-11.514-11.53l.404-.622c-33.732 24.102-54.864 65.089-50.801 110.57 5.177 57.954 52.271 105.048 110.225 110.225 45.481 4.063 86.473-17.076 110.574-50.808-.133.095-.493.316-.627.411-7.409 5.249-16.666-4.026-11.53-11.514 13.898-20.264 20.906-45.607 17.606-72.72z" fill="#ff5f7a"/><circle cx="251.937" cy="333.206" fill="#eceaec" r="89.397"/><circle cx="251.937" cy="333.206" fill="#fff" r="73.143"/><path d="m308.826 341.333h-56.889c-2.159 0-4.222-.857-5.746-2.381l-39.262-39.258c-3.175-3.175-3.175-8.317 0-11.492s8.317-3.175 11.492 0l36.881 36.877h53.524c4.492 0 8.127 3.639 8.127 8.127s-3.635 8.127-8.127 8.127z" fill="#4e3d4d"/><circle cx="251.937" cy="333.206" fill="#ff7e92" r="16.254"/><path d="m251.865 490.552c-82.438-9.12-148.675-75.744-157.376-158.226-5.455-51.706 11.12-99.499 41.535-135.209-43.031 36.63-68.424 93.237-61.853 155.526 8.701 82.483 74.938 149.107 157.376 158.226 62.666 6.933 119.75-18.564 156.582-61.818-35.947 30.615-84.181 47.263-136.264 41.501z" fill="#4e3d4d"/><circle cx="386.032" cy="69.08" fill="#ffe077" r="8.127"/></g></svg>