<?xml version="1.0" standalone="no"?>
<!DOCTYPE svg PUBLIC "-//W3C//DTD SVG 20010904//EN"
 "http://www.w3.org/TR/2001/REC-SVG-20010904/DTD/svg10.dtd">
<svg version="1.0" xmlns="http://www.w3.org/2000/svg"
 width="79.000000pt" height="100.000000pt" viewBox="0 0 79.000000 100.000000"
 preserveAspectRatio="xMidYMid meet">

<g transform="translate(0.000000,100.000000) scale(0.100000,-0.100000)"
fill="#000000" stroke="none">
<path d="M356 954 c-37 -37 -1 -103 49 -90 14 4 31 17 37 31 23 52 -46 100
-86 59z"/>
<path d="M196 784 c-22 -21 -20 -57 4 -79 46 -41 116 29 75 75 -22 24 -58 26
-79 4z"/>
<path d="M358 789 c-24 -14 -23 -62 2 -84 46 -41 116 29 75 75 -20 22 -50 25
-77 9z"/>
<path d="M516 778 c-21 -30 -20 -44 4 -68 24 -24 53 -26 74 -4 19 18 21 65 4
82 -20 20 -65 14 -82 -10z"/>
<path d="M25 606 c-35 -53 34 -115 79 -70 19 18 21 65 4 82 -21 21 -66 14 -83
-12z"/>
<path d="M192 618 c-17 -17 -15 -64 4 -82 45 -45 114 17 79 70 -17 26 -62 33
-83 12z"/>
<path d="M352 618 c-19 -19 -14 -63 8 -83 46 -41 116 29 75 75 -20 22 -64 27
-83 8z"/>
<path d="M516 614 c-25 -24 -20 -61 10 -81 24 -15 29 -15 53 -2 49 28 32 99
-24 99 -13 0 -31 -7 -39 -16z"/>
<path d="M675 610 c-23 -25 -13 -67 20 -82 52 -23 100 46 59 86 -21 22 -57 20
-79 -4z"/>
<path d="M352 448 c-21 -21 -14 -66 13 -84 52 -34 111 31 70 76 -20 22 -65 26
-83 8z"/>
<path d="M352 278 c-21 -21 -14 -66 13 -84 52 -34 111 31 70 76 -20 22 -65 26
-83 8z"/>
<path d="M352 108 c-21 -21 -14 -66 13 -84 52 -34 111 31 70 76 -20 22 -65 26
-83 8z"/>
</g>
</svg>
